HIERARCHY
ROOT Hips
{
  OFFSET 265.287 66.7526 -254.649
  CHANNELS 6 Xposition Yposition Zposition Zrotation Xrotation Yrotation
  JOINT LeftUpLeg
  {
    OFFSET 8.64259 1.95398 -2.38835
    CHANNELS 3 Zrotation Xrotation Yrotation
    JOINT LeftLeg
    {
      OFFSET 43.7702 0 0
      CHANNELS 3 Zrotation Xrotation Yrotation
      JOINT LeftFoot
      {
        OFFSET 40.6238 0 0
        CHANNELS 3 Zrotation Xrotation Yrotation
        JOINT LeftToeBase
        {
          OFFSET 12.7242 0 0
          CHANNELS 3 Zrotation Xrotation Yrotation
          End Site
          {
            OFFSET 0 0 0
          }
        }
      }
    }
  }
  JOINT RightUpLeg
  {
    OFFSET -8.2249 1.95398 -2.59336
    CHANNELS 3 Zrotation Xrotation Yrotation
    JOINT RightLeg
    {
      OFFSET 43.5653 0 0
      CHANNELS 3 Zrotation Xrotation Yrotation
      JOINT RightFoot
      {
        OFFSET 40.6238 0 0
        CHANNELS 3 Zrotation Xrotation Yrotation
        JOINT RightToeBase
        {
          OFFSET 12.7242 0 0
          CHANNELS 3 Zrotation Xrotation Yrotation
          End Site
          {
            OFFSET 0 0 0
          }
        }
      }
    }
  }
  JOINT Spine
  {
    OFFSET 0.165834 0.87714 6.61349
    CHANNELS 3 Zrotation Xrotation Yrotation
    JOINT Spine1
    {
      OFFSET 7.38963 1.71661e-005 0
      CHANNELS 3 Zrotation Xrotation Yrotation
      JOINT Spine2
      {
        OFFSET 11.9445 1.14441e-005 0
        CHANNELS 3 Zrotation Xrotation Yrotation
        JOINT Spine3
        {
          OFFSET 14.7254 4.19617e-005 0
          CHANNELS 3 Zrotation Xrotation Yrotation
          JOINT Spine4
          {
            OFFSET 10.9679 0 0
            CHANNELS 3 Zrotation Xrotation Yrotation
            JOINT RightShoulder
            {
              OFFSET 2.46616 -1.6653 3.69651
              CHANNELS 3 Zrotation Xrotation Yrotation
              JOINT RightArm
              {
                OFFSET 13.0012 0 0
                CHANNELS 3 Zrotation Xrotation Yrotation
                JOINT RightForeArm
                {
                  OFFSET 28.7848 1.52588e-005 0
                  CHANNELS 3 Zrotation Xrotation Yrotation
                  JOINT RightHand
                  {
                    OFFSET 26.5688 1.52588e-005 0
                    CHANNELS 3 Zrotation Xrotation Yrotation
                    End Site
                    {
                      OFFSET 0 0 0
                    }
                  }
                }
              }
            }
            JOINT LeftShoulder
            {
              OFFSET 2.38034 -1.29275 -3.7523
              CHANNELS 3 Zrotation Xrotation Yrotation
              JOINT LeftArm
              {
                OFFSET 16.3182 6.10351e-005 0
                CHANNELS 3 Zrotation Xrotation Yrotation
                JOINT LeftForeArm
                {
                  OFFSET 27.0901 0 0
                  CHANNELS 3 Zrotation Xrotation Yrotation
                  JOINT LeftHand
                  {
                    OFFSET 24.5451 1.52588e-005 0
                    CHANNELS 3 Zrotation Xrotation Yrotation
                    End Site
                    {
                      OFFSET 0 0 0
                    }
                  }
                }
              }
            }
            JOINT Neck
            {
              OFFSET 5.0226 -0.0266342 0
              CHANNELS 3 Zrotation Xrotation Yrotation
              JOINT Head
              {
                OFFSET 6.69364 2.86102e-005 0
                CHANNELS 3 Zrotation Xrotation Yrotation
                End Site
                {
                  OFFSET 0 0 0
                }
              }
            }
          }
        }
      }
    }
  }
}
MOTION
Frames:	10
Frame Time:	0.0416667
4.94524 96.8474 -18.146 98.948 -86.7417 98.7493 -173.841 2.29801 90.4232 -13.5563 6.89231 2.29399 67.089 3.03486 1.05519 29.1532 -0.358245 2.1972 175.604 1.87381 88.4768 -12.1633 -7.78716 -0.81454 67.2392 -3.71394 0.110364 28.8041 -0.0452873 0.365675 -0.184368 6.87907 -90.2566 13.1292 -0.489344 -0.452274 1.4583 -0.508777 -0.430301 -21.0766 -0.330793 -0.578429 -1.06397 -0.330799 -0.57843 102.307 -50.2357 -81.9461 29.7159 -6.76833 -4.8658 2.02529 -9.75094 -11.9499 -13.2827 -0.458635 -1.206 -80.6314 -50.4011 92.6577 -29.9978 12.7867 -16.6683 4.84704 29.6421 -8.11658 0.366202 -0.0624805 -3.19681 8.13891 -0.643753 6.72339 -11.6213 -1.50978 -7.5171 
4.94482 96.8411 -18.1439 98.7376 -86.662 98.5225 -173.645 1.96684 90.4876 -12.7581 6.41603 2.12421 66.9786 3.03449 0.794012 29.1331 -0.24276 1.20171 175.529 1.93823 88.4222 -12.2879 -7.89112 -0.741664 67.2325 -3.67206 0.131943 28.5598 0.0111011 0.180957 -0.199144 6.87939 -90.2477 13.1209 -0.514424 -0.431807 1.45001 -0.532931 -0.408742 -21.085 -0.360866 -0.566442 -1.07238 -0.360877 -0.566448 102.384 -50.525 -81.8272 29.3197 -6.02674 -5.04286 1.50979 -11.8324 -12.1327 -11.8507 -0.707113 1.78848 -80.6766 -50.3542 92.5867 -29.5614 14.3866 -16.6995 2.7593 22.9985 -6.7347 4.57872 -0.000749681 -2.8798 8.20436 -1.07716 6.04437 -11.1004 -1.90971 -6.32498 
4.92384 96.8562 -18.1207 97.5699 -86.7984 97.269 -173.769 1.95187 90.3775 -12.5822 5.98563 2.17593 66.8012 2.91723 0.37793 29.2103 -0.31083 1.6109 175.465 2.15718 88.3136 -12.5082 -8.33467 -0.701005 67.0537 -3.54862 0.0668566 28.941 -0.0103516 -0.113348 -0.186063 6.8798 -90.2359 13.1332 -0.482748 -0.41146 1.46234 -0.500384 -0.389819 -21.0727 -0.336775 -0.537522 -1.06006 -0.336772 -0.537521 102.431 -50.673 -81.7563 29.2234 -5.9013 -5.11264 1.44831 -12.0363 -12.0148 -11.9375 -0.672989 1.41694 -80.7182 -50.3264 92.5226 -29.5437 14.4982 -16.9055 2.70076 23.2411 -6.68768 4.54211 -0.00350729 -2.9302 8.19864 -1.04096 5.75216 -10.9444 -1.84865 -5.89826 
4.879 96.8639 -18.1044 98.7718 -86.881 98.434 -173.77 1.81861 90.3799 -12.4968 5.90698 2.18477 66.866 2.92013 0.13542 29.0719 -0.31654 2.03302 175.409 2.29694 88.2716 -12.8563 -8.80181 -0.646724 66.9079 -3.52512 -0.336421 29.3805 -0.0798939 -0.0645386 -0.176917 6.87969 -90.2393 13.1186 -0.46628 -0.420866 1.44773 -0.484344 -0.399949 -21.0872 -0.318238 -0.541544 -1.0746 -0.318235 -0.541548 102.493 -50.5584 -81.6587 29.4002 -5.79274 -5.23364 1.42999 -11.9374 -11.9273 -12.0467 -0.669299 1.31624 -80.7757 -50.5271 92.4461 -29.4058 14.4835 -17.0208 2.73058 23.4117 -6.70314 4.53841 0.0043052 -2.8 8.27454 -1.04744 6.07662 -11.0932 -1.89348 -6.29116 
4.86309 96.8579 -18.0882 98.4722 -86.7942 98.1892 -173.778 1.87207 90.4185 -12.6388 5.91737 2.22921 67.1122 3.05731 0.365675 28.9526 -0.223667 1.51388 175.474 2.42909 88.3633 -13.1374 -9.02913 -0.657451 66.7253 -3.51113 -0.963307 29.9679 -0.212557 0.383232 -0.189701 6.87986 -90.2341 13.1131 -0.489145 -0.407954 1.44222 -0.506616 -0.386041 -21.0928 -0.343925 -0.536095 -1.08018 -0.343926 -0.536106 102.482 -50.8206 -81.6781 29.2168 -5.8703 -5.30641 1.41868 -11.9873 -12.1294 -11.6527 -0.721687 2.08817 -80.8154 -50.2688 92.3725 -29.3726 14.7835 -17.061 2.55146 22.9718 -6.70508 4.66576 0.00689091 -2.78576 8.33945 -1.06039 6.02337 -11.1691 -1.8851 -6.42366 
4.83213 96.8509 -18.0728 99.5578 -86.6931 99.2442 -173.767 1.85209 90.4146 -12.7229 6.20621 2.2191 66.9841 3.06632 0.733051 29.2531 -0.285786 1.26702 175.468 2.52375 88.3467 -13.4938 -9.28366 -0.651293 66.6404 -3.41751 -1.07687 30.0589 -0.188091 0.0215882 -0.197538 6.88012 -90.2304 13.1025 -0.502952 -0.399184 1.43155 -0.520025 -0.377043 -21.1036 -0.359737 -0.531887 -1.09091 -0.35973 -0.531893 102.529 -50.706 -81.6047 29.4229 -5.90746 -5.32214 1.42247 -12.0484 -12.0599 -11.8399 -0.710624 1.85521 -80.8276 -50.3801 92.3598 -29.2024 14.8536 -17.2061 2.34537 22.8755 -6.42172 4.9199 0.0127415 -2.74693 8.12188 -1.05191 5.81802 -10.9691 -1.85424 -6.11015 
4.81642 96.8517 -18.0302 100.123 -86.7194 99.8692 -173.708 1.79396 90.5149 -12.6981 6.03264 2.22203 67.0572 3.02979 0.262419 29.0425 -0.267268 1.66036 175.429 2.52903 88.3668 -13.5561 -9.62533 -0.572515 66.3617 -3.28218 -1.22859 30.4457 -0.239078 -0.0285265 -0.189707 6.88606 -90.2309 13.1014 -0.487596 -0.401722 1.43045 -0.504807 -0.38144 -21.1046 -0.344322 -0.529692 -1.09196 -0.344329 -0.529702 102.522 -50.6933 -81.6153 29.4982 -5.92735 -5.26664 1.40615 -12.1434 -12.0181 -11.8813 -0.66027 1.32206 -80.8845 -50.4395 92.2769 -29.1091 14.7836 -17.3003 2.31437 23.0927 -6.26071 5.22001 0.011501 -2.83349 7.97251 -1.08078 5.50406 -10.9039 -1.83298 -5.8022 
4.8079 96.8515 -18.0208 101.641 -86.7338 101.405 -173.745 1.74288 90.5356 -12.7786 5.87636 2.27555 67.1558 3.01179 -0.0403674 28.9431 -0.281497 2.0563 175.389 2.51219 88.3603 -13.6817 -9.81896 -0.526942 66.2313 -3.22362 -1.38512 30.7275 -0.265933 -0.175037 -0.196493 6.89206 -90.2325 13.0887 -0.501811 -0.403337 1.41783 -0.519087 -0.380815 -21.1173 -0.357398 -0.535502 -1.10462 -0.357402 -0.53551 102.416 -50.6989 -81.7783 29.3996 -6.17575 -5.28049 1.56563 -12.1367 -12.0029 -12.3737 -0.68792 1.31879 -80.8821 -50.5401 92.2864 -28.8588 15.1127 -17.3231 2.03733 22.7452 -6.22273 5.12797 0.020341 -2.67851 7.95081 -0.981676 5.93051 -11.1945 -1.77243 -6.34618 
4.8546 96.8452 -18.0078 103.048 -86.6747 102.59 -173.872 1.59568 90.2911 -12.7498 5.83178 2.23964 67.2386 3.12941 0.225303 28.9449 -0.236458 1.64846 175.176 2.5655 88.061 -13.9728 -9.90094 -0.469545 66.4218 -3.32904 -1.5656 30.757 -0.336836 0.511571 -0.222557 6.91061 -90.187 13.0519 -0.531646 -0.308838 1.38107 -0.544722 -0.285144 -21.1544 -0.414253 -0.454344 -1.14173 -0.414255 -0.454343 102.186 -50.6567 -82.1348 29.3717 -6.49692 -5.2763 1.73394 -11.8954 -12.2451 -12.5949 -0.769087 1.9714 -81.0281 -50.6474 92.0726 -29.0938 14.4011 -17.3429 2.70472 24.5941 -6.41808 4.08495 0.00214154 -2.72715 7.42138 -1.08671 5.66229 -10.3442 -1.85319 -6.14053 
4.9132 96.846 -17.9662 104.518 -86.9275 104.149 -173.774 1.68012 90.351 -13.0775 5.63596 2.17854 67.3913 3.18691 0.34615 29.0424 -0.237699 1.39965 175.18 2.31047 88.085 -13.512 -9.78764 -0.477833 66.4992 -3.42768 -1.3121 30.6415 -0.345147 0.762631 -0.22369 6.92741 -90.1557 13.0185 -0.518863 -0.247994 1.34768 -0.529274 -0.224917 -21.1879 -0.420341 -0.392466 -1.17523 -0.420342 -0.392472 102.084 -50.4888 -82.292 29.7879 -6.51395 -5.46487 1.88839 -10.9098 -12.1312 -12.8013 -0.759045 1.76207 -80.9184 -50.6263 92.2365 -28.962 14.4891 -17.367 2.81466 24.6377 -6.7616 4.22774 0.0170422 -2.5065 7.28123 -0.77854 5.60216 -10.5301 -1.53793 -5.87857 
